<svg xmlns="http://www.w3.org/2000/svg" fill="none" viewBox="0 0 24 24" id="Location-Pin-Favorite-Flag--Streamline-Flex" height="24" width="24">
  <desc>Location Pin Favorite Flag Streamline Icon: https://streamlinehq.com</desc>
  <g id="location-pin-favorite-flag">
    <path id="Union" stroke="#ffffff" d="M11.892428571428571 0.8571428571428571C7.004297142857142 0.8571428571428571 2.9472342857142855 4.792731428571428 2.59896 9.872365714285715c-0.16578857142857142 2.4181371428571428 0.3539657142857143 4.9272 1.8155485714285713 6.926657142857142C6.152948571428571 19.1772 7.923325714285714 20.81057142857143 10.691485714285713 22.730914285714285c0.7919657142857143 0.5492571428571429 1.8246514285714286 0.5492571428571429 2.6166 0 2.7681771428571427 -1.9203428571428571 4.538485714285714 -3.5537142857142854 6.276942857142857 -5.931891428571428 1.4616 -1.9994571428571428 1.9813714285714283 -4.50852 1.8155999999999999 -6.926657142857142C21.052285714285713 4.792731428571428 16.995274285714284 0.8571428571428571 12.107142857142856 0.8571428571428571h-0.2147142857142857Z" stroke-width="1"></path>
    <path id="Intersect" stroke="#ffffff" stroke-linecap="round" stroke-linejoin="round" d="M8.850137142857143 12.033959999999999c1.1133085714285713 0.08593714285714285 2.45064 0.2572285714285714 3.673062857142857 0.2572285714285714 0.7147885714285713 0 1.4151942857142856 -0.05856 2.0962285714285716 -0.12438857142857142 0.8226171428571428 -0.07950857142857141 1.40052 -0.7459028571428571 1.056857142857143 -1.4975314285714285 -0.3885428571428571 -0.8497885714285713 -0.9452914285714286 -1.6766571428571426 -0.9452914285714286 -1.6766571428571426s0.5457771428571428 -0.7750628571428572 0.9337028571428572 -1.5891085714285713c0.3555428571428571 -0.7460742857142857 -0.22265142857142856 -1.4138914285714286 -1.0452685714285712 -1.4933999999999998 -0.6810342857142857 -0.06582857142857142 -1.38144 -0.12438857142857142 -2.0962285714285716 -0.12438857142857142 -0.6954171428571428 0 -1.377222857142857 0.055439999999999996 -2.040805714285714 0.11905714285714285 -0.8470628571428571 0.08120571428571428 -1.5205714285714285 0.767502857142857 -1.5610457142857141 1.6174799999999998 -0.13068 2.745205714285714 -0.10203428571428572 5.476439999999999 0.08593714285714285 8.227748571428572" stroke-width="1"></path>
  </g>
</svg>
