<svg xmlns="http://www.w3.org/2000/svg" fill="none" viewBox="0 0 24 24" id="Exit--Streamline-Guidance---Free" height="24" width="24">
  <desc>Exit Streamline Icon: https://streamlinehq.com</desc>
  <path stroke="#FFFFFF" d="M23.28 12H7.92M18 7.2C18 7.7539 18.6384 8.6995 19.1789 9.4022C19.6476 10.021 20.2133 10.5598 20.8541 10.9978C21.552 11.4672 22.512 12 23.2704 12C22.512 12 21.552 12.5338 20.8541 13.0022C20.2133 13.4402 19.6476 13.979 19.1789 14.5978C18.6384 15.3005 18 16.2461 18 16.8M14.16 7.2V2.88H13.8442C9.5963 2.8802 5.3717 2.2675 1.2989 1.0608L0.96 0.96H0.72V23.04H0.96L1.2989 22.9392C5.3716 21.7325 9.5964 21.1198 13.8442 21.12H14.16V16.8" stroke-width="1"></path>
</svg>
