<svg xmlns="http://www.w3.org/2000/svg" viewBox="0 0 24 24" id="Note-Task-Edit--Streamline-Nova" height="24" width="24">
  <desc>Note Task Edit Streamline Icon: https://streamlinehq.com</desc>
  <defs></defs>
  <path d="M5.6273 8.0797H11.5071V10.0396H5.6273ZM5.6273 11.9995H9.5472V13.9594H5.6273Z" fill="#ffffff" stroke-width="1"></path>
  <path d="M3.6694 6.1197H13.4689V17.3177L16.4088 14.3778V5.1398C16.4088 4.0574 15.5313 3.1799 14.4489 3.1799H12.489C11.9847 1.4729 10.4376 0.2856 8.6583 0.24C6.8794 0.2861 5.3329 1.4733 4.8287 3.1799H2.6894C1.6069 3.1798 0.7295 4.0573 0.7295 5.1398V19.8391C0.7295 20.9216 1.607 21.799 2.6894 21.799H10.9338L11.3189 20.2586C11.4452 19.7524 11.6714 19.2766 11.9843 18.8592H3.6694ZM22.66 13.8359C21.848 13.0245 20.5321 13.0245 19.7201 13.8359L13.7335 19.8225C13.4824 20.0736 13.3042 20.3883 13.2181 20.7329L12.7663 22.5409C12.5851 23.261 13.2394 23.9131 13.9589 23.7296L15.7669 23.2778C16.1115 23.1916 16.4262 23.0135 16.6773 22.7623L22.6639 16.7758C23.4742 15.9627 23.4725 14.6468 22.6599 13.8359Z" fill="#ffffff" stroke-width="1"></path>
</svg>
