<svg xmlns="http://www.w3.org/2000/svg" fill="none" viewBox="-0.5 -0.5 24 24" id="Book-1--Streamline-Plump" height="24" width="24">
  <desc>Book 1 Streamline Icon: https://streamlinehq.com</desc>
  <g id="Solid/Interface Essential/Content/book-1--content-books-book-close">
    <path id="Subtract" fill="#ffffff" fill-rule="evenodd" d="M11.4885 0.23c-3.128575 0 -5.368104166666667 0.10350000000000001 -6.82985 0.20767083333333333 -1.6117729166666668 0.11485625000000001 -2.8614395833333335 1.3606416666666667 -2.98669375 2.9696833333333337 -0.11471250000000001 1.4739166666666668 -0.23119791666666667 3.6979208333333333 -0.23119791666666667 6.6539v10.071077083333334c0 0.006325 0.00009583333333333334 0.012602083333333333 0.0002875 0.018879166666666666 0.0006708333333333334 0.22980833333333336 0.0138 0.44126458333333335 0.0359375 0.6351833333333333 0.15529791666666667 1.3593000000000002 1.420825 1.9049270833333334 2.4323458333333337 1.9247645833333333 1.3427208333333334 0.02630625 3.7357270833333334 0.058841666666666674 7.362970833333333 0.058841666666666674 3.0408874999999997 0 5.322391666666666 -0.02285625 6.844608333333333 -0.04576041666666667 0.7628812500000001 -0.011452083333333335 1.5258583333333335 -0.023910416666666667 2.2884520833333335 -0.04590416666666667 0.39713333333333334 -0.01193125 0.7095979166666667 -0.3435625 0.6976187500000001 -0.7406958333333334 -0.01193125 -0.3970854166666667 -0.3435625 -0.7093104166666667 -0.7406479166666667 -0.6973791666666667l-0.21816458333333333 0.0058937500000000006v-2.5773895833333333c0.8469270833333334 -0.45405833333333334 1.4237958333333334 -1.3508187500000002 1.4149791666666667 -2.3802125 -0.011595833333333333 -1.3404208333333334 -0.023000000000000003 -3.3849291666666668 -0.023000000000000003 -6.227250000000001 0 -2.9560270833333337 -0.1164375 -5.18003125 -0.23115 -6.653947916666667 -0.1252541666666667 -1.60899375 -1.3749208333333334 -2.854827083333334 -2.98669375 -2.9696833333333337C16.85655625 0.33349999999999996 14.616979166666667 0.23 11.4885 0.23ZM3.9277291666666665 18.992968750000003c1.354125 -0.026258333333333335 3.8090875 -0.059560416666666664 7.560770833333334 -0.059560416666666664 3.2467375 0 5.65685 0.024916666666666667 7.21696875 0.048731250000000004v2.293722916666667c-0.18745 0.003258333333333333 -0.39085625 0.006564583333333334 -0.6101708333333334 0.009822916666666667 -1.5150291666666666 0.02276041666666667 -3.789297916666667 0.04561666666666667 -6.822997916666667 0.04561666666666667 -3.6187145833333334 0 -6.00228125 -0.0324875 -7.334747916666667 -0.05860208333333334 -0.40997500000000003 -0.00805 -0.9761104166666668 -0.16804375000000002 -1.0311666666666668 -0.6496541666666666 -0.016435416666666668 -0.14403749999999998 -0.026689583333333333 -0.3072416666666667 -0.026689583333333333 -0.49071458333333334 0 -0.19051666666666667 0.011164583333333334 -0.3592791666666667 0.029181250000000002 -0.5071020833333334 0.05702083333333333 -0.46690000000000004 0.6229166666666667 -0.6245458333333334 1.0188520833333334 -0.6322604166666667Zm2.06899375 -13.727454166666666c0 -0.52971875 0.4294291666666667 -0.9591479166666668 0.9591479166666668 -0.9591479166666668h8.63233125c0.5297666666666666 0 0.9591479166666668 0.4294291666666667 0.9591479166666668 0.9591479166666668 0 0.5297666666666666 -0.42938125000000005 0.9591479166666668 -0.9591479166666668 0.9591479166666668H6.955870833333334c-0.52971875 0 -0.9591479166666668 -0.42938125000000005 -0.9591479166666668 -0.9591479166666668Zm0.9591479166666668 3.836591666666667c-0.52971875 0 -0.9591479166666668 0.4294291666666667 -0.9591479166666668 0.9591479166666668s0.4294291666666667 0.9591479166666668 0.9591479166666668 0.9591479166666668h4.316189583333333c0.52971875 0 0.9591479166666668 -0.42938125000000005 0.9591479166666668 -0.9591479166666668s-0.4294291666666667 -0.9591479166666668 -0.9591479166666668 -0.9591479166666668h-4.316189583333333Z" clip-rule="evenodd" stroke-width="1"></path>
  </g>
</svg>
