<svg xmlns="http://www.w3.org/2000/svg" fill="none" viewBox="0 0 24 24" id="Home-3--Streamline-Flex" height="24" width="24">
  <desc>Home 3 Streamline Icon: https://streamlinehq.com</desc>
  <g id="home-3--home-house-roof-shelter">
    <path stroke="#ffffff" stroke-linecap="round" stroke-linejoin="round" d="M1.373844 19.111714285714285 1.2857142857142856 12.011485714285714C4.010742857142857 7.51026857142857 6.235097142857143 4.932102857142858 11.060845714285714 1.5805474285714285c0.5660057142857143 -0.39311142857142856 1.3123028571428572 -0.39311142857142856 1.8783257142857144 0C17.764971428571428 4.932102857142858 19.98925714285714 7.51026857142857 22.71428571428571 12.011485714285714l-0.08811428571428571 7.100228571428571c-0.1848 1.6633714285714285 -1.4970857142857141 2.9892 -3.141942857142857 3.1818857142857144 -4.786937142857143 0.5609142857142857 -10.181519999999999 0.5609142857142857 -14.968457142857142 0 -1.6448399999999999 -0.19268571428571427 -2.9571874285714284 -1.5185142857142857 -3.1419274285714285 -3.1818857142857144Z" stroke-width="1"></path>
    <path stroke="#ffffff" stroke-linecap="round" stroke-linejoin="round" d="M14.858554285714286 22.659942857142855V16.72549714285714c0 -1.5788571428571427 -1.279902857142857 -2.8587599999999997 -2.858742857142857 -2.8587599999999997 -1.5788571428571427 0 -2.8587599999999997 1.279902857142857 -2.8587599999999997 2.8587599999999997v5.934445714285713" stroke-width="1"></path>
  </g>
</svg>
